<?xml version="1.0" encoding="utf-8"?>
<!-- Generator: Adobe Illustrator 16.0.0, SVG Export Plug-In . SVG Version: 6.00 Build 0)  -->
<!DOCTYPE svg PUBLIC "-//W3C//DTD SVG 1.1//EN" "http://www.w3.org/Graphics/SVG/1.1/DTD/svg11.dtd">
<svg version="1.1" id="Layer_1" xmlns="http://www.w3.org/2000/svg" xmlns:xlink="http://www.w3.org/1999/xlink" x="0px" y="0px"
	 width="121.989px" height="121.986px" viewBox="0 0 121.989 121.986" enable-background="new 0 0 121.989 121.986"
	 xml:space="preserve">
<path fill="#F69170" d="M60.994,0c33.687,0,60.995,27.309,60.995,60.994s-27.309,60.992-60.995,60.992"/>
<path fill="#F69170" d="M60.994,121.986C27.309,121.986,0,94.68,0,60.994S27.309,0,60.994,0"/>
<path fill="#FFDB7B" d="M77.066,20.648H44.924c-9.904,0-17.934,8.029-17.934,17.934v44.822c0,9.904,8.029,17.934,17.934,17.934
	h32.143c9.904,0,17.934-8.029,17.934-17.934V38.582C95,28.678,86.971,20.648,77.066,20.648z"/>
<path fill="#FFFFFF" d="M77.066,17.42H44.924c-11.668,0-21.161,9.492-21.161,21.162v44.822c0,11.67,9.493,21.162,21.161,21.162
	h32.143c11.669,0,21.161-9.492,21.161-21.162V38.582C98.228,26.912,88.735,17.42,77.066,17.42z M95,83.404
	c0,9.904-8.029,17.934-17.934,17.934H44.924c-9.904,0-17.934-8.029-17.934-17.934V38.582c0-9.904,8.029-17.934,17.934-17.934h32.143
	C86.971,20.648,95,28.678,95,38.582V83.404z"/>
<g>
	<path fill="#E25E34" d="M85.702,72.85L85.702,72.85c0.001,0-0.007-0.01-0.021-0.025c-0.032-0.031-0.063-0.064-0.098-0.096
		c-1.982-1.992-29.123-29.277-29.396-29.555c-0.284-0.285-0.557-0.318-2.423-0.951c-1.643-0.561-4.173-2.838-4.756-3.377
		L29.715,58.143c0.681,1.559,2.991,6.502,6.3,9.813c3.972,3.971,24.702,25.654,24.702,25.654l0.003-0.006
		c0.802,0.877,1.951,1.428,3.23,1.428c2.424,0,4.388-1.965,4.388-4.387c0-0.604-0.12-1.176-0.341-1.697
		c0.698,1.275,2.055,2.143,3.609,2.143c2.272,0,4.112-1.842,4.112-4.113c0-0.797-0.23-1.537-0.622-2.168
		c0.68,0.533,1.535,0.854,2.466,0.854c2.213,0,4.007-1.793,4.007-4.004c0-0.818-0.247-1.576-0.665-2.211
		c0.54,0.256,1.144,0.404,1.781,0.404c2.301,0,4.166-1.859,4.166-4.148C86.852,74.598,86.413,73.594,85.702,72.85z"/>
	<path fill="#48515A" d="M49.174,33.287c1.705,1.703,1.705,4.467,0,6.172L30.177,58.457c-1.705,1.703-4.469,1.703-6.173,0
		l-2.902-2.9c-1.705-1.705-1.705-4.469,0.001-6.174l18.998-18.998c1.704-1.705,4.467-1.705,6.172,0L49.174,33.287z"/>
	<circle fill="#FFFFFF" cx="26.99" cy="52.569" r="3.031"/>
</g>
<g>
	<g>
		<g>
			<path fill="#48515A" d="M37.377,76.279c-0.952,0-1.899-0.385-2.588-1.143c-1.297-1.43-1.192-3.641,0.236-4.938l3.787-3.438
				c1.428-1.299,3.638-1.191,4.937,0.234c1.297,1.432,1.189,3.641-0.238,4.939l-3.785,3.436
				C39.056,75.982,38.215,76.279,37.377,76.279z"/>
		</g>
		<g>
			<path fill="#48515A" d="M54.094,94.59c-0.952,0-1.9-0.389-2.588-1.146c-1.298-1.428-1.192-3.639,0.235-4.938l3.787-3.438
				c1.429-1.297,3.639-1.189,4.936,0.236c1.299,1.43,1.191,3.641-0.237,4.939l-3.785,3.438C55.771,94.289,54.931,94.59,54.094,94.59
				z"/>
		</g>
		<g>
			<path fill="#48515A" d="M42.326,83.059c-0.942,0-1.883-0.381-2.572-1.129c-1.307-1.418-1.214-3.631,0.206-4.936l4.556-4.191
				c1.42-1.307,3.631-1.217,4.938,0.205c1.307,1.42,1.213,3.631-0.206,4.938l-4.557,4.191
				C44.021,82.756,43.173,83.059,42.326,83.059z"/>
		</g>
		<g>
			<path fill="#48515A" d="M48.143,88.908c-0.942,0-1.883-0.379-2.571-1.127c-1.308-1.422-1.215-3.633,0.207-4.939l4.553-4.191
				c1.421-1.307,3.631-1.213,4.939,0.205c1.306,1.422,1.214,3.635-0.206,4.938l-4.557,4.193
				C49.838,88.604,48.988,88.908,48.143,88.908z"/>
		</g>
		<path fill="#48515A" d="M66.153,41.957c-5.48-0.592-8.379,0.043-9.73,1.313c-1.351,1.27-10.92,10.313-10.92,10.313
			s-2.595,2.963,0.742,5.877c3.335,2.91,5.719,1.27,6.195,0.848c0.476-0.426,7.569-7.467,7.569-7.467s2.753,2.859,5.401,3.283
			c2.647,0.422,3.442,0.072,5.188,1.652c1.748,1.576,12.575,12.531,12.575,12.531l9.299-11.049L73.032,39.82
			C72.231,40.73,70.19,42.398,66.153,41.957z"/>
	</g>
	<path fill="#E25E34" d="M75.517,31.006c1.703-1.705,4.467-1.705,6.172,0l18.997,18.996c1.704,1.705,1.704,4.469,0,6.174l-2.9,2.902
		c-1.705,1.703-4.469,1.703-6.173-0.002L72.614,40.078c-1.705-1.703-1.705-4.467,0-6.172L75.517,31.006z"/>
	<circle fill="#FFFFFF" cx="94.798" cy="53.189" r="3.03"/>
</g>
</svg>
