<?xml version="1.0" encoding="utf-8"?>
<!-- Generator: Adobe Illustrator 16.0.0, SVG Export Plug-In . SVG Version: 6.00 Build 0)  -->
<!DOCTYPE svg PUBLIC "-//W3C//DTD SVG 1.1//EN" "http://www.w3.org/Graphics/SVG/1.1/DTD/svg11.dtd">
<svg version="1.1" id="Layer_1" xmlns="http://www.w3.org/2000/svg" xmlns:xlink="http://www.w3.org/1999/xlink" x="0px" y="0px"
	 width="121.989px" height="121.986px" viewBox="0 0 121.989 121.986" enable-background="new 0 0 121.989 121.986"
	 xml:space="preserve">
<path fill="#FFDB7B" d="M60.994,0C27.308,0,0,27.309,0,60.994c0,33.685,27.308,60.992,60.994,60.992"/>
<path fill="#FFDB7B" d="M60.994,121.986c33.686,0,60.995-27.307,60.995-60.992C121.989,27.309,94.68,0,60.994,0"/>
<g>
	<path fill="#F69170" d="M94.428,84.669l-3.311,2.543l-3.309-2.543c-10.467,0-8.727,11.965-8.727,11.965h24.074
		C103.157,96.634,104.897,84.669,94.428,84.669z"/>
	<circle fill="#F69170" cx="90.988" cy="78.25" r="5.515"/>
</g>
<g>
	<path fill="#FFFFFF" d="M64.305,84.669l-3.311,2.543l-3.309-2.543c-10.468,0-8.727,11.965-8.727,11.965h24.073
		C73.032,96.634,74.772,84.669,64.305,84.669z"/>
	<circle fill="#FFFFFF" cx="60.863" cy="78.25" r="5.515"/>
</g>
<g>
	<path fill="#B1E0E7" d="M34.18,84.669l-3.311,2.543l-3.309-2.543c-10.468,0-8.727,11.965-8.727,11.965h24.073
		C42.907,96.634,44.647,84.669,34.18,84.669z"/>
	<circle fill="#B1E0E7" cx="30.738" cy="78.25" r="5.515"/>
</g>
<path fill="#48515A" d="M90.043,96.634v6.055H61.938v-6.055h-2.151v6.055H31.814v-6.055h-2.152v7.131
	c0,0.594,0.481,1.076,1.076,1.076H91.12c0.594,0,1.076-0.482,1.076-1.076v-7.131H90.043z"/>
<path fill="#F69170" d="M60.995,17.936c-10.106,0-18.299,8.193-18.299,18.299c0,6.123,3.019,11.529,7.638,14.852
	c0.438,0.314,0.894,0.605,1.357,0.881v3.404c2.621,1.887,5.828,3.008,9.304,3.008c3.478,0,6.683-1.125,9.304-3.01v-3.404
	c0.465-0.275,0.92-0.564,1.357-0.881c4.619-3.32,7.637-8.727,7.637-14.85C79.293,26.129,71.102,17.936,60.995,17.936z"/>
<path fill="#48515A" d="M60.995,58.379c-3.476,0-6.683-1.121-9.304-3.008v6.462c0,3.297,2.673,5.971,5.971,5.971h6.667
	c3.299,0,5.971-2.674,5.971-5.971v-6.464C67.678,57.254,64.473,58.379,60.995,58.379z M68.618,64.183
	c-2.248,1.092-4.885,1.666-7.623,1.666c-2.737,0-5.373-0.574-7.621-1.664c-0.359-0.176-0.511-0.607-0.337-0.969
	c0.175-0.359,0.607-0.51,0.968-0.336c4.108,1.99,9.878,1.988,13.982,0c0.357-0.176,0.793-0.023,0.967,0.336
	S68.977,64.009,68.618,64.183z M68.618,60.063c-2.252,1.089-4.887,1.666-7.623,1.666c-2.737,0-5.373-0.576-7.621-1.664
	c-0.359-0.174-0.511-0.607-0.337-0.969c0.175-0.357,0.607-0.508,0.968-0.336c4.107,1.99,9.873,1.99,13.982,0
	c0.357-0.174,0.793-0.023,0.967,0.336S68.977,59.889,68.618,60.063z"/>
<path fill="#F2F2F3" d="M67.987,58.76c-4.109,1.99-9.875,1.99-13.982,0c-0.36-0.172-0.793-0.021-0.968,0.336
	c-0.174,0.361-0.022,0.795,0.337,0.969c2.248,1.087,4.884,1.664,7.621,1.664c2.736,0,5.371-0.576,7.623-1.666
	c0.359-0.174,0.51-0.607,0.336-0.967S68.344,58.586,67.987,58.76z"/>
<path fill="#F2F2F3" d="M67.987,62.88c-4.104,1.988-9.874,1.99-13.982,0c-0.36-0.174-0.793-0.023-0.968,0.336
	c-0.174,0.361-0.022,0.793,0.337,0.969c2.248,1.09,4.884,1.664,7.621,1.664c2.738,0,5.375-0.574,7.623-1.666
	c0.359-0.174,0.51-0.607,0.336-0.967S68.344,62.705,67.987,62.88z"/>
<path fill="#FFFFFF" d="M60.995,22.549c-7.56,0-13.686,6.127-13.686,13.686c0,4.578,2.258,8.623,5.711,11.107
	c2.248,1.617,4.996,2.578,7.975,2.578c2.98,0,5.726-0.963,7.976-2.578c3.453-2.486,5.709-6.529,5.709-11.107
	C74.68,28.676,68.555,22.549,60.995,22.549z"/>
<path fill="#FFFFFF" d="M60.995,10.689c14.085,0,25.544,11.459,25.544,25.545c0,6.01-2.137,11.848-6.018,16.441
	c-0.41,0.482-1.135,0.545-1.617,0.135c-0.484-0.408-0.545-1.133-0.137-1.617c3.531-4.178,5.477-9.492,5.477-14.959
	c0-12.82-10.43-23.25-23.25-23.25c-12.82,0-23.25,10.43-23.25,23.25c0,5.465,1.945,10.779,5.477,14.961
	c0.41,0.484,0.35,1.207-0.135,1.617c-0.216,0.182-0.479,0.27-0.74,0.27c-0.326,0-0.65-0.137-0.877-0.406
	c-3.883-4.596-6.02-10.434-6.02-16.441C35.45,22.148,46.91,10.689,60.995,10.689"/>
<path fill="#48515A" d="M67.133,35.266c-2.111,0-3.811,0.652-5.051,1.934c-0.457,0.473-0.807,0.994-1.083,1.521
	c-0.275-0.527-0.626-1.049-1.082-1.521c-1.24-1.281-2.939-1.934-5.052-1.934c-0.534,0-0.969,0.434-0.969,0.969
	s0.435,0.969,0.969,0.969c1.562,0,2.79,0.449,3.65,1.334c1.566,1.611,1.513,4.195,1.511,4.252v15.59
	c0,0.535,0.434,0.969,0.969,0.969c0.002,0,0.003,0,0.004,0c0.002,0,0.003,0,0.006,0c0.534,0,0.969-0.434,0.969-0.969L61.972,42.76
	c-0.001-0.027-0.055-2.611,1.513-4.223c0.859-0.885,2.088-1.334,3.648-1.334c0.535,0,0.969-0.434,0.969-0.969
	S67.668,35.266,67.133,35.266z"/>
</svg>
