<?xml version="1.0" encoding="utf-8"?>
<!-- Generator: Adobe Illustrator 16.0.0, SVG Export Plug-In . SVG Version: 6.00 Build 0)  -->
<!DOCTYPE svg PUBLIC "-//W3C//DTD SVG 1.1//EN" "http://www.w3.org/Graphics/SVG/1.1/DTD/svg11.dtd">
<svg version="1.1" id="Layer_1" xmlns="http://www.w3.org/2000/svg" xmlns:xlink="http://www.w3.org/1999/xlink" x="0px" y="0px"
	 width="121.99px" height="121.987px" viewBox="0 0 121.99 121.987" enable-background="new 0 0 121.99 121.987"
	 xml:space="preserve">
<path fill="#F69170" d="M60.995,121.987c33.686,0,60.995-27.309,60.995-60.994C121.99,27.308,94.681,0,60.995,0"/>
<path fill="#F69170" d="M60.995,0C27.309,0,0,27.308,0,60.993c0,33.686,27.309,60.994,60.995,60.994"/>
<circle fill="#FFFFFF" cx="65.188" cy="60.994" r="36.165"/>
<g>
	<path fill="#B1E0E7" d="M63.111,63.073H49.619c0.358,4.168,1.74,8.119,3.58,11.674c3.094-0.813,6.425-1.369,9.912-1.539V63.073z"/>
	<path fill="#B1E0E7" d="M61.991,92.405c-2.543-2.34-7.061-6.928-10.719-12.949c-3.253,1.072-6.168,2.375-8.609,3.641
		C47.692,88.221,54.445,91.645,61.991,92.405z"/>
	<path fill="#B1E0E7" d="M67.267,58.917h13.488c-0.371-4.333-1.842-8.437-3.789-12.096c-3.035,0.783-6.293,1.322-9.699,1.485V58.917
		z"/>
	<path fill="#B1E0E7" d="M49.521,45.676c-3.532-1.192-6.667-2.631-9.257-4.01c-3.751,4.83-6.118,10.769-6.541,17.251h11.914
		C45.986,54.138,47.498,49.663,49.521,45.676z"/>
	<path fill="#B1E0E7" d="M61.991,29.586c-7.392,0.742-14.029,4.041-19.024,8.991c2.438,1.248,5.337,2.521,8.55,3.562
		C55.13,36.314,59.504,31.873,61.991,29.586z"/>
	<path fill="#B1E0E7" d="M78.861,42.146c3.217-1.041,6.115-2.313,8.553-3.562c-4.996-4.955-11.637-8.255-19.031-8.998
		C70.873,31.874,75.248,36.317,78.861,42.146z"/>
	<path fill="#B1E0E7" d="M84.734,58.917h11.92c-0.426-6.482-2.793-12.421-6.545-17.251c-2.588,1.38-5.723,2.818-9.258,4.011
		C82.873,49.663,84.388,54.138,84.734,58.917z"/>
	<path fill="#B1E0E7" d="M55.273,78.321c2.618,4.078,5.607,7.418,7.837,9.646V77.151C60.388,77.295,57.763,77.721,55.273,78.321z"/>
	<path fill="#B1E0E7" d="M67.267,73.208c3.484,0.17,6.809,0.725,9.9,1.535c1.846-3.557,3.229-7.506,3.588-11.67H67.267V73.208z"/>
	<path fill="#B1E0E7" d="M67.267,87.958c2.227-2.227,5.209-5.564,7.826-9.639c-2.486-0.6-5.107-1.023-7.826-1.168V87.958z"/>
	<path fill="#B1E0E7" d="M81.05,75.909c3.566,1.221,6.725,2.684,9.313,4.076c3.604-4.768,5.875-10.58,6.291-16.912h-11.92
		C84.398,67.692,82.974,72.026,81.05,75.909z"/>
	<path fill="#B1E0E7" d="M45.638,63.073H33.724c0.412,6.332,2.686,12.143,6.287,16.912c2.59-1.393,5.743-2.855,9.313-4.074
		C47.401,72.026,45.976,67.692,45.638,63.073z"/>
	<path fill="#B1E0E7" d="M74.841,43.264c-2.555-3.897-5.42-7.088-7.574-9.241v10.343C69.892,44.225,72.433,43.828,74.841,43.264z"/>
	<path fill="#B1E0E7" d="M68.382,92.405c7.545-0.76,14.301-4.184,19.33-9.307c-2.443-1.268-5.357-2.57-8.611-3.643
		C75.443,85.479,70.927,90.065,68.382,92.405z"/>
	<path fill="#B1E0E7" d="M63.111,34.028c-2.154,2.155-5.013,5.342-7.567,9.234c2.409,0.565,4.942,0.963,7.567,1.104V34.028z"/>
	<path fill="#B1E0E7" d="M63.111,48.307c-3.407-0.164-6.661-0.702-9.694-1.483c-1.952,3.661-3.426,7.765-3.798,12.093h13.492V48.307
		z"/>
</g>
<path fill="#48515A" d="M101.414,76.235c-0.967,5.424-10.607,6.688-11.703,6.813c-0.734,0.084-1.389-0.439-1.473-1.168
	s0.439-1.389,1.17-1.473c2.266-0.26,8.861-1.672,9.389-4.639c0.275-1.543-0.924-6.061-17.949-14.646
	C66.001,53.634,59.195,50.11,55.13,48.005c-6.027-3.121-6.141-3.181-17.6-8.469c-3.753-2.013-10.662-4.491-13.212-2.579
	c-0.995,0.745-1.351,2.249-1.087,4.461l3.061-0.942l-2.07,9.043l-6.797-6.314l3.232-0.995c-0.505-3.483,0.181-5.969,2.068-7.382
	c1.171-0.876,2.674-1.212,4.293-1.212c4.92,0,10.89,3.106,11.697,3.542c11.441,5.279,11.556,5.339,17.638,8.487
	c4.061,2.104,10.857,5.624,25.689,13.104C95.925,65.749,102.261,71.468,101.414,76.235z"/>
<path fill="#48515A" d="M102.744,45.754c-0.969-5.424-10.607-6.688-11.703-6.813c-0.736-0.083-1.389,0.44-1.473,1.169
	c-0.086,0.729,0.439,1.388,1.168,1.472c2.266,0.261,8.863,1.673,9.389,4.638c0.273,1.544-0.922,6.062-17.949,14.648
	c-14.846,7.487-21.651,11.01-25.716,13.116c-6.027,3.121-6.142,3.182-17.6,8.471c-3.754,2.012-10.662,4.49-13.213,2.578
	c-0.993-0.744-1.351-2.25-1.087-4.461l3.062,0.941l-2.069-9.043l-6.798,6.314l3.231,0.994c-0.505,3.484,0.183,5.971,2.069,7.383
	c1.172,0.875,2.675,1.213,4.294,1.213c4.92-0.002,10.887-3.107,11.696-3.543c11.44-5.277,11.558-5.338,17.638-8.486
	c4.061-2.104,10.858-5.623,25.69-13.104C97.255,56.241,103.591,50.521,102.744,45.754z"/>
<circle fill="#FFDB7B" cx="82.644" cy="60.994" r="5.65"/>
<circle fill="#E25E34" cx="90.887" cy="38.097" r="5.651"/>
<circle fill="#FFDB7B" cx="39.718" cy="39.313" r="5.65"/>
<circle fill="#E25E34" cx="90.658" cy="83.893" r="5.65"/>
<circle fill="#FFDB7B" cx="39.488" cy="83.893" r="5.651"/>
</svg>
